<svg class="gjs-block-svg" viewBox="0 0 24 24" xmlns="http://www.w3.org/2000/svg">
    <path class="gjs-block-svg-path" d="M22,5.5 C22,5.2 21.5,5 20.75,5 L3.25,5 C2.5,5 2,5.2 2,5.5 L2,8.5 C2,8.8 2.5,9 3.25,9 L20.75,9 C21.5,9 22,8.8 22,8.5 L22,5.5 Z M21,8 L3,8 L3,6 L21,6 L21,8 Z" fill-rule="nonzero"></path>
    <path class="gjs-block-svg-path" d="M22,10.5 C22,10.2 21.5,10 20.75,10 L3.25,10 C2.5,10 2,10.2 2,10.5 L2,13.5 C2,13.8 2.5,14 3.25,14 L20.75,14 C21.5,14 22,13.8 22,13.5 L22,10.5 Z M21,13 L3,13 L3,11 L21,11 L21,13 Z" fill-rule="nonzero"></path>
    <rect class="gjs-block-svg-path" x="2" y="15" width="10" height="3" rx="0.5"></rect>
</svg>
